<svg width="19" height="18" viewBox="0 0 19 18" fill="none" xmlns="http://www.w3.org/2000/svg">
<path fill-rule="evenodd" clip-rule="evenodd" d="M2.33331 0H16.3333C17.4379 0 18.3333 0.89543 18.3333 2V16C18.3333 17.1046 17.4379 18 16.3333 18H2.33331C1.22874 18 0.333313 17.1046 0.333313 16V2C0.333313 0.89543 1.22874 0 2.33331 0ZM5.33331 15C5.60945 15 5.83331 14.7761 5.83331 14.5V7.5C5.83331 7.2239 5.60945 7 5.33331 7H3.83331C3.55717 7 3.33331 7.2239 3.33331 7.5V14.5C3.33331 14.7761 3.55717 15 3.83331 15H5.33331ZM4.58331 6C3.75488 6 3.08331 5.32843 3.08331 4.5C3.08331 3.67157 3.75488 3 4.58331 3C5.41174 3 6.08331 3.67157 6.08331 4.5C6.08331 5.32843 5.41174 6 4.58331 6ZM14.8333 15C15.1094 15 15.3333 14.7761 15.3333 14.5V9.9C15.3658 8.3108 14.1909 6.95452 12.6133 6.76C11.5103 6.65925 10.4416 7.1744 9.83331 8.1V7.5C9.83331 7.2239 9.60941 7 9.33331 7H7.83331C7.55721 7 7.33331 7.2239 7.33331 7.5V14.5C7.33331 14.7761 7.55721 15 7.83331 15H9.33331C9.60941 15 9.83331 14.7761 9.83331 14.5V10.75C9.83331 9.9216 10.5049 9.25 11.3333 9.25C12.1617 9.25 12.8333 9.9216 12.8333 10.75V14.5C12.8333 14.7761 13.0572 15 13.3333 15H14.8333Z" fill="black"/>
</svg>
