<svg width="1280" height="54" viewBox="0 0 1280 54" fill="none" xmlns="http://www.w3.org/2000/svg">
<g filter="url(#filter0_i_1_786)">
<rect width="1280" height="54" fill="#F7F7F7"/>
<path d="M66.8262 27.5967H64.167V26.5234H66.8262C67.3411 26.5234 67.7581 26.4414 68.0771 26.2773C68.3962 26.1133 68.6286 25.8854 68.7744 25.5938C68.9248 25.3021 69 24.9694 69 24.5957C69 24.2539 68.9248 23.9326 68.7744 23.6318C68.6286 23.3311 68.3962 23.0895 68.0771 22.9072C67.7581 22.7204 67.3411 22.627 66.8262 22.627H64.4746V31.5H63.1553V21.5469H66.8262C67.5781 21.5469 68.2139 21.6768 68.7334 21.9365C69.2529 22.1963 69.6471 22.5563 69.916 23.0166C70.1849 23.4723 70.3193 23.9941 70.3193 24.582C70.3193 25.2201 70.1849 25.7646 69.916 26.2158C69.6471 26.667 69.2529 27.0111 68.7334 27.248C68.2139 27.4805 67.5781 27.5967 66.8262 27.5967ZM73.0605 21V31.5H71.7959V21H73.0605ZM72.7598 27.5215L72.2334 27.501C72.238 26.9951 72.3132 26.528 72.459 26.0996C72.6048 25.6667 72.8099 25.2907 73.0742 24.9717C73.3385 24.6527 73.653 24.4066 74.0176 24.2334C74.3867 24.0557 74.7946 23.9668 75.2412 23.9668C75.6058 23.9668 75.9339 24.0169 76.2256 24.1172C76.5173 24.2129 76.7656 24.3678 76.9707 24.582C77.1803 24.7962 77.3398 25.0742 77.4492 25.416C77.5586 25.7533 77.6133 26.1657 77.6133 26.6533V31.5H76.3418V26.6396C76.3418 26.2523 76.2848 25.9424 76.1709 25.71C76.057 25.473 75.8906 25.3021 75.6719 25.1973C75.4531 25.0879 75.1842 25.0332 74.8652 25.0332C74.5508 25.0332 74.2637 25.0993 74.0039 25.2314C73.7487 25.3636 73.5277 25.5459 73.3408 25.7783C73.1585 26.0107 73.015 26.2773 72.9102 26.5781C72.8099 26.8743 72.7598 27.1888 72.7598 27.5215ZM79.1719 27.8838V27.7266C79.1719 27.1934 79.2493 26.6989 79.4043 26.2432C79.5592 25.7829 79.7826 25.3841 80.0742 25.0469C80.3659 24.7051 80.7191 24.4408 81.1338 24.2539C81.5485 24.0625 82.0133 23.9668 82.5283 23.9668C83.0479 23.9668 83.515 24.0625 83.9297 24.2539C84.349 24.4408 84.7044 24.7051 84.9961 25.0469C85.2923 25.3841 85.5179 25.7829 85.6729 26.2432C85.8278 26.6989 85.9053 27.1934 85.9053 27.7266V27.8838C85.9053 28.417 85.8278 28.9115 85.6729 29.3672C85.5179 29.8229 85.2923 30.2217 84.9961 30.5635C84.7044 30.9007 84.3512 31.165 83.9365 31.3564C83.5264 31.5433 83.0615 31.6367 82.542 31.6367C82.0225 31.6367 81.5553 31.5433 81.1406 31.3564C80.7259 31.165 80.3704 30.9007 80.0742 30.5635C79.7826 30.2217 79.5592 29.8229 79.4043 29.3672C79.2493 28.9115 79.1719 28.417 79.1719 27.8838ZM80.4365 27.7266V27.8838C80.4365 28.2529 80.4798 28.6016 80.5664 28.9297C80.653 29.2533 80.7829 29.5404 80.9561 29.791C81.1338 30.0417 81.3548 30.2399 81.6191 30.3857C81.8835 30.527 82.1911 30.5977 82.542 30.5977C82.8883 30.5977 83.1914 30.527 83.4512 30.3857C83.7155 30.2399 83.9342 30.0417 84.1074 29.791C84.2806 29.5404 84.4105 29.2533 84.4971 28.9297C84.5882 28.6016 84.6338 28.2529 84.6338 27.8838V27.7266C84.6338 27.362 84.5882 27.0179 84.4971 26.6943C84.4105 26.3662 84.2783 26.0768 84.1006 25.8262C83.9274 25.571 83.7087 25.3704 83.4443 25.2246C83.1846 25.0788 82.8792 25.0059 82.5283 25.0059C82.182 25.0059 81.8766 25.0788 81.6123 25.2246C81.3525 25.3704 81.1338 25.571 80.9561 25.8262C80.7829 26.0768 80.653 26.3662 80.5664 26.6943C80.4798 27.0179 80.4365 27.362 80.4365 27.7266ZM88.7559 25.6826V31.5H87.4912V24.1035H88.6875L88.7559 25.6826ZM88.4551 27.5215L87.9287 27.501C87.9333 26.9951 88.0085 26.528 88.1543 26.0996C88.3001 25.6667 88.5052 25.2907 88.7695 24.9717C89.0339 24.6527 89.3483 24.4066 89.7129 24.2334C90.082 24.0557 90.4899 23.9668 90.9365 23.9668C91.3011 23.9668 91.6292 24.0169 91.9209 24.1172C92.2126 24.2129 92.4609 24.3678 92.666 24.582C92.8757 24.7962 93.0352 25.0742 93.1445 25.416C93.2539 25.7533 93.3086 26.1657 93.3086 26.6533V31.5H92.0371V26.6396C92.0371 26.2523 91.9801 25.9424 91.8662 25.71C91.7523 25.473 91.5859 25.3021 91.3672 25.1973C91.1484 25.0879 90.8796 25.0332 90.5605 25.0332C90.2461 25.0332 89.959 25.0993 89.6992 25.2314C89.444 25.3636 89.223 25.5459 89.0361 25.7783C88.8538 26.0107 88.7103 26.2773 88.6055 26.5781C88.5052 26.8743 88.4551 27.1888 88.4551 27.5215ZM98.2988 31.6367C97.7839 31.6367 97.3167 31.5501 96.8975 31.377C96.4827 31.1992 96.125 30.9508 95.8242 30.6318C95.528 30.3128 95.3001 29.9346 95.1406 29.4971C94.9811 29.0596 94.9014 28.5811 94.9014 28.0615V27.7744C94.9014 27.1729 94.9902 26.6374 95.168 26.168C95.3457 25.694 95.5872 25.293 95.8926 24.9648C96.1979 24.6367 96.5443 24.3883 96.9316 24.2197C97.319 24.0511 97.7201 23.9668 98.1348 23.9668C98.6634 23.9668 99.1191 24.0579 99.502 24.2402C99.8893 24.4225 100.206 24.6777 100.452 25.0059C100.698 25.3294 100.881 25.7122 100.999 26.1543C101.118 26.5918 101.177 27.0703 101.177 27.5898V28.1572H95.6533V27.125H99.9121V27.0293C99.8939 26.7012 99.8255 26.3822 99.707 26.0723C99.5931 25.7624 99.4108 25.5072 99.1602 25.3066C98.9095 25.1061 98.5677 25.0059 98.1348 25.0059C97.8477 25.0059 97.5833 25.0674 97.3418 25.1904C97.1003 25.3089 96.8929 25.4867 96.7197 25.7236C96.5465 25.9606 96.4121 26.25 96.3164 26.5918C96.2207 26.9336 96.1729 27.3278 96.1729 27.7744V28.0615C96.1729 28.4124 96.2207 28.7428 96.3164 29.0527C96.4167 29.3581 96.5602 29.627 96.7471 29.8594C96.9385 30.0918 97.1686 30.2741 97.4375 30.4062C97.7109 30.5384 98.0208 30.6045 98.3672 30.6045C98.8138 30.6045 99.1921 30.5133 99.502 30.3311C99.8118 30.1488 100.083 29.9049 100.315 29.5996L101.081 30.208C100.922 30.4495 100.719 30.6797 100.473 30.8984C100.227 31.1172 99.9235 31.2949 99.5635 31.4316C99.208 31.5684 98.7865 31.6367 98.2988 31.6367ZM113.974 21.5469V31.5H112.647L107.637 23.8232V31.5H106.317V21.5469H107.637L112.668 29.2441V21.5469H113.974ZM120.646 29.791V24.1035H121.917V31.5H120.707L120.646 29.791ZM120.885 28.2324L121.411 28.2188C121.411 28.7109 121.359 29.1667 121.254 29.5859C121.154 30.0007 120.99 30.3607 120.762 30.666C120.534 30.9714 120.235 31.2106 119.866 31.3838C119.497 31.5524 119.048 31.6367 118.52 31.6367C118.16 31.6367 117.829 31.5843 117.528 31.4795C117.232 31.3747 116.977 31.2129 116.763 30.9941C116.549 30.7754 116.382 30.4906 116.264 30.1396C116.15 29.7887 116.093 29.3672 116.093 28.875V24.1035H117.357V28.8887C117.357 29.2214 117.394 29.4971 117.467 29.7158C117.544 29.93 117.647 30.1009 117.774 30.2285C117.907 30.3516 118.052 30.4382 118.212 30.4883C118.376 30.5384 118.545 30.5635 118.718 30.5635C119.256 30.5635 119.682 30.4609 119.996 30.2559C120.311 30.0462 120.536 29.766 120.673 29.415C120.814 29.0596 120.885 28.6654 120.885 28.2324ZM125.103 25.5732V31.5H123.831V24.1035H125.034L125.103 25.5732ZM124.843 27.5215L124.255 27.501C124.259 26.9951 124.326 26.528 124.453 26.0996C124.581 25.6667 124.77 25.2907 125.021 24.9717C125.271 24.6527 125.583 24.4066 125.957 24.2334C126.331 24.0557 126.764 23.9668 127.256 23.9668C127.602 23.9668 127.921 24.0169 128.213 24.1172C128.505 24.2129 128.757 24.3656 128.972 24.5752C129.186 24.7848 129.352 25.0537 129.471 25.3818C129.589 25.71 129.648 26.1064 129.648 26.5713V31.5H128.384V26.6328C128.384 26.2454 128.318 25.9355 128.186 25.7031C128.058 25.4707 127.876 25.3021 127.639 25.1973C127.402 25.0879 127.124 25.0332 126.805 25.0332C126.431 25.0332 126.119 25.0993 125.868 25.2314C125.618 25.3636 125.417 25.5459 125.267 25.7783C125.116 26.0107 125.007 26.2773 124.938 26.5781C124.875 26.8743 124.843 27.1888 124.843 27.5215ZM129.635 26.8242L128.787 27.084C128.792 26.6784 128.858 26.2887 128.985 25.915C129.118 25.5413 129.307 25.2087 129.553 24.917C129.803 24.6253 130.111 24.3952 130.476 24.2266C130.84 24.0534 131.257 23.9668 131.727 23.9668C132.123 23.9668 132.474 24.0192 132.779 24.124C133.089 24.2288 133.349 24.3906 133.559 24.6094C133.773 24.8236 133.935 25.0993 134.044 25.4365C134.153 25.7738 134.208 26.1748 134.208 26.6396V31.5H132.937V26.626C132.937 26.2113 132.87 25.89 132.738 25.6621C132.611 25.4297 132.428 25.2679 132.191 25.1768C131.959 25.0811 131.681 25.0332 131.357 25.0332C131.079 25.0332 130.833 25.0811 130.619 25.1768C130.405 25.2725 130.225 25.4046 130.079 25.5732C129.933 25.7373 129.822 25.9264 129.744 26.1406C129.671 26.3548 129.635 26.5827 129.635 26.8242ZM136.115 21H137.387V30.0645L137.277 31.5H136.115V21ZM142.384 27.7402V27.8838C142.384 28.4215 142.32 28.9206 142.192 29.3809C142.065 29.8366 141.878 30.2331 141.632 30.5703C141.386 30.9076 141.085 31.1696 140.729 31.3564C140.374 31.5433 139.966 31.6367 139.506 31.6367C139.036 31.6367 138.624 31.557 138.269 31.3975C137.918 31.2334 137.621 30.9987 137.38 30.6934C137.138 30.388 136.945 30.0189 136.799 29.5859C136.658 29.153 136.56 28.6654 136.505 28.123V27.4941C136.56 26.9473 136.658 26.4574 136.799 26.0244C136.945 25.5915 137.138 25.2223 137.38 24.917C137.621 24.6071 137.918 24.3724 138.269 24.2129C138.619 24.0488 139.027 23.9668 139.492 23.9668C139.957 23.9668 140.369 24.0579 140.729 24.2402C141.09 24.418 141.39 24.6732 141.632 25.0059C141.878 25.3385 142.065 25.7373 142.192 26.2021C142.32 26.6624 142.384 27.1751 142.384 27.7402ZM141.112 27.8838V27.7402C141.112 27.3711 141.078 27.0247 141.01 26.7012C140.941 26.373 140.832 26.0859 140.682 25.8398C140.531 25.5892 140.333 25.3932 140.087 25.252C139.841 25.1061 139.538 25.0332 139.178 25.0332C138.859 25.0332 138.581 25.0879 138.344 25.1973C138.111 25.3066 137.913 25.4548 137.749 25.6416C137.585 25.8239 137.451 26.0335 137.346 26.2705C137.245 26.5029 137.17 26.7445 137.12 26.9951V28.6426C137.193 28.9616 137.312 29.2692 137.476 29.5654C137.644 29.8571 137.868 30.0964 138.146 30.2832C138.428 30.4701 138.777 30.5635 139.191 30.5635C139.533 30.5635 139.825 30.4951 140.066 30.3584C140.312 30.2171 140.511 30.0234 140.661 29.7773C140.816 29.5312 140.93 29.2464 141.003 28.9229C141.076 28.5993 141.112 28.2529 141.112 27.8838ZM147.053 31.6367C146.538 31.6367 146.071 31.5501 145.651 31.377C145.237 31.1992 144.879 30.9508 144.578 30.6318C144.282 30.3128 144.054 29.9346 143.895 29.4971C143.735 29.0596 143.655 28.5811 143.655 28.0615V27.7744C143.655 27.1729 143.744 26.6374 143.922 26.168C144.1 25.694 144.341 25.293 144.646 24.9648C144.952 24.6367 145.298 24.3883 145.686 24.2197C146.073 24.0511 146.474 23.9668 146.889 23.9668C147.417 23.9668 147.873 24.0579 148.256 24.2402C148.643 24.4225 148.96 24.6777 149.206 25.0059C149.452 25.3294 149.634 25.7122 149.753 26.1543C149.871 26.5918 149.931 27.0703 149.931 27.5898V28.1572H144.407V27.125H148.666V27.0293C148.648 26.7012 148.579 26.3822 148.461 26.0723C148.347 25.7624 148.165 25.5072 147.914 25.3066C147.663 25.1061 147.322 25.0059 146.889 25.0059C146.602 25.0059 146.337 25.0674 146.096 25.1904C145.854 25.3089 145.647 25.4867 145.474 25.7236C145.3 25.9606 145.166 26.25 145.07 26.5918C144.975 26.9336 144.927 27.3278 144.927 27.7744V28.0615C144.927 28.4124 144.975 28.7428 145.07 29.0527C145.171 29.3581 145.314 29.627 145.501 29.8594C145.692 30.0918 145.923 30.2741 146.191 30.4062C146.465 30.5384 146.775 30.6045 147.121 30.6045C147.568 30.6045 147.946 30.5133 148.256 30.3311C148.566 30.1488 148.837 29.9049 149.069 29.5996L149.835 30.208C149.675 30.4495 149.473 30.6797 149.227 30.8984C148.98 31.1172 148.677 31.2949 148.317 31.4316C147.962 31.5684 147.54 31.6367 147.053 31.6367ZM152.672 25.2656V31.5H151.407V24.1035H152.638L152.672 25.2656ZM154.982 24.0625L154.976 25.2383C154.871 25.2155 154.771 25.2018 154.675 25.1973C154.584 25.1882 154.479 25.1836 154.36 25.1836C154.069 25.1836 153.811 25.2292 153.588 25.3203C153.365 25.4115 153.175 25.5391 153.021 25.7031C152.866 25.8672 152.743 26.0632 152.651 26.291C152.565 26.5143 152.508 26.7604 152.48 27.0293L152.125 27.2344C152.125 26.7878 152.168 26.3685 152.255 25.9766C152.346 25.5846 152.485 25.2383 152.672 24.9375C152.859 24.6322 153.096 24.3952 153.383 24.2266C153.674 24.0534 154.021 23.9668 154.422 23.9668C154.513 23.9668 154.618 23.9782 154.736 24.001C154.855 24.0192 154.937 24.0397 154.982 24.0625ZM156.097 30.8301C156.097 30.6159 156.163 30.4359 156.295 30.29C156.432 30.1396 156.628 30.0645 156.883 30.0645C157.138 30.0645 157.332 30.1396 157.464 30.29C157.601 30.4359 157.669 30.6159 157.669 30.8301C157.669 31.0397 157.601 31.2174 157.464 31.3633C157.332 31.5091 157.138 31.582 156.883 31.582C156.628 31.582 156.432 31.5091 156.295 31.3633C156.163 31.2174 156.097 31.0397 156.097 30.8301ZM156.104 24.7939C156.104 24.5798 156.17 24.3997 156.302 24.2539C156.438 24.1035 156.634 24.0283 156.89 24.0283C157.145 24.0283 157.339 24.1035 157.471 24.2539C157.607 24.3997 157.676 24.5798 157.676 24.7939C157.676 25.0036 157.607 25.1813 157.471 25.3271C157.339 25.473 157.145 25.5459 156.89 25.5459C156.634 25.5459 156.438 25.473 156.302 25.3271C156.17 25.1813 156.104 25.0036 156.104 24.7939ZM164.136 30.4404H164.266C164.995 30.4404 165.587 30.3379 166.043 30.1328C166.499 29.9277 166.85 29.652 167.096 29.3057C167.342 28.9593 167.51 28.5697 167.602 28.1367C167.693 27.6992 167.738 27.2503 167.738 26.79V25.2656C167.738 24.8145 167.686 24.4134 167.581 24.0625C167.481 23.7116 167.34 23.4176 167.157 23.1807C166.979 22.9437 166.777 22.7637 166.549 22.6406C166.321 22.5176 166.079 22.4561 165.824 22.4561C165.533 22.4561 165.271 22.5153 165.038 22.6338C164.81 22.7477 164.617 22.9095 164.457 23.1191C164.302 23.3288 164.184 23.5749 164.102 23.8574C164.02 24.14 163.979 24.4476 163.979 24.7803C163.979 25.0765 164.015 25.3636 164.088 25.6416C164.161 25.9196 164.272 26.1702 164.423 26.3936C164.573 26.6169 164.76 26.7946 164.983 26.9268C165.211 27.0544 165.478 27.1182 165.783 27.1182C166.066 27.1182 166.33 27.0635 166.576 26.9541C166.827 26.8402 167.048 26.6875 167.239 26.4961C167.435 26.3001 167.59 26.0791 167.704 25.833C167.823 25.5869 167.891 25.3294 167.909 25.0605H168.511C168.511 25.4388 168.436 25.8125 168.285 26.1816C168.139 26.5462 167.934 26.8789 167.67 27.1797C167.406 27.4805 167.096 27.722 166.74 27.9043C166.385 28.082 165.997 28.1709 165.578 28.1709C165.086 28.1709 164.66 28.0752 164.3 27.8838C163.94 27.6924 163.644 27.4372 163.411 27.1182C163.183 26.7992 163.012 26.4437 162.898 26.0518C162.789 25.6553 162.734 25.2542 162.734 24.8486C162.734 24.3747 162.8 23.9303 162.933 23.5156C163.065 23.1009 163.261 22.7363 163.521 22.4219C163.78 22.1029 164.102 21.8545 164.484 21.6768C164.872 21.499 165.318 21.4102 165.824 21.4102C166.394 21.4102 166.879 21.5241 167.28 21.752C167.681 21.9798 168.007 22.2852 168.258 22.668C168.513 23.0508 168.7 23.4814 168.818 23.96C168.937 24.4385 168.996 24.9307 168.996 25.4365V25.8945C168.996 26.4095 168.962 26.9336 168.894 27.4668C168.83 27.9954 168.704 28.5013 168.518 28.9844C168.335 29.4674 168.069 29.9004 167.718 30.2832C167.367 30.6615 166.909 30.9622 166.344 31.1855C165.783 31.4043 165.09 31.5137 164.266 31.5137H164.136V30.4404ZM172.353 26.7627L171.341 26.5029L171.84 21.5469H176.946V22.7158H172.913L172.612 25.4229C172.795 25.318 173.025 25.2201 173.303 25.1289C173.585 25.0378 173.909 24.9922 174.273 24.9922C174.734 24.9922 175.146 25.0719 175.511 25.2314C175.875 25.3864 176.185 25.6097 176.44 25.9014C176.7 26.193 176.898 26.5439 177.035 26.9541C177.172 27.3643 177.24 27.8223 177.24 28.3281C177.24 28.8066 177.174 29.2464 177.042 29.6475C176.914 30.0485 176.721 30.3994 176.461 30.7002C176.201 30.9964 175.873 31.2266 175.477 31.3906C175.085 31.5547 174.622 31.6367 174.089 31.6367C173.688 31.6367 173.307 31.582 172.947 31.4727C172.592 31.3587 172.273 31.1878 171.99 30.96C171.712 30.7275 171.484 30.4404 171.307 30.0986C171.133 29.7523 171.024 29.3467 170.979 28.8818H172.182C172.236 29.2555 172.346 29.57 172.51 29.8252C172.674 30.0804 172.888 30.2741 173.152 30.4062C173.421 30.5339 173.733 30.5977 174.089 30.5977C174.39 30.5977 174.656 30.5452 174.889 30.4404C175.121 30.3356 175.317 30.1852 175.477 29.9893C175.636 29.7933 175.757 29.5563 175.839 29.2783C175.925 29.0003 175.969 28.6882 175.969 28.3418C175.969 28.0273 175.925 27.7357 175.839 27.4668C175.752 27.1979 175.622 26.9632 175.449 26.7627C175.281 26.5622 175.073 26.4072 174.827 26.2979C174.581 26.1839 174.299 26.127 173.979 26.127C173.556 26.127 173.234 26.1839 173.016 26.2979C172.801 26.4118 172.58 26.5667 172.353 26.7627ZM183.481 21.5332H183.591V22.6064H183.481C182.812 22.6064 182.251 22.7158 181.8 22.9346C181.349 23.1488 180.991 23.4382 180.727 23.8027C180.462 24.1628 180.271 24.5684 180.152 25.0195C180.038 25.4707 179.981 25.9287 179.981 26.3936V27.8564C179.981 28.2985 180.034 28.6904 180.139 29.0322C180.243 29.3695 180.387 29.6543 180.569 29.8867C180.752 30.1191 180.957 30.2946 181.185 30.4131C181.417 30.5316 181.659 30.5908 181.909 30.5908C182.201 30.5908 182.461 30.5361 182.688 30.4268C182.916 30.3128 183.108 30.1556 183.263 29.9551C183.422 29.75 183.543 29.5085 183.625 29.2305C183.707 28.9525 183.748 28.6471 183.748 28.3145C183.748 28.0182 183.712 27.7334 183.639 27.46C183.566 27.182 183.454 26.9359 183.304 26.7217C183.153 26.5029 182.964 26.332 182.736 26.209C182.513 26.0814 182.246 26.0176 181.937 26.0176C181.586 26.0176 181.257 26.1042 180.952 26.2773C180.651 26.446 180.403 26.6693 180.207 26.9473C180.016 27.2207 179.906 27.5192 179.879 27.8428L179.209 27.8359C179.273 27.3255 179.391 26.8903 179.564 26.5303C179.742 26.1657 179.961 25.8695 180.221 25.6416C180.485 25.4092 180.779 25.2406 181.103 25.1357C181.431 25.0264 181.777 24.9717 182.142 24.9717C182.638 24.9717 183.067 25.0651 183.427 25.252C183.787 25.4388 184.083 25.6895 184.315 26.0039C184.548 26.3138 184.719 26.6647 184.828 27.0566C184.942 27.444 184.999 27.8428 184.999 28.2529C184.999 28.7223 184.933 29.1621 184.801 29.5723C184.669 29.9824 184.47 30.3424 184.206 30.6523C183.946 30.9622 183.625 31.2038 183.242 31.377C182.859 31.5501 182.415 31.6367 181.909 31.6367C181.371 31.6367 180.902 31.5273 180.501 31.3086C180.1 31.0853 179.767 30.7891 179.503 30.4199C179.239 30.0508 179.04 29.6406 178.908 29.1895C178.776 28.7383 178.71 28.2803 178.71 27.8154V27.2207C178.71 26.5189 178.781 25.8307 178.922 25.1562C179.063 24.4818 179.307 23.8711 179.653 23.3242C180.004 22.7773 180.49 22.3421 181.109 22.0186C181.729 21.695 182.52 21.5332 183.481 21.5332ZM196.408 21.5469V22.2578L192.286 31.5H190.953L195.068 22.5859H189.682V21.5469H196.408ZM204.577 28.1504V29.1895H197.386V28.4443L201.843 21.5469H202.875L201.768 23.543L198.821 28.1504H204.577ZM203.189 21.5469V31.5H201.925V21.5469H203.189ZM212.247 30.4609V31.5H205.732V30.5908L208.993 26.9609C209.394 26.5143 209.704 26.1361 209.923 25.8262C210.146 25.5117 210.301 25.2314 210.388 24.9854C210.479 24.7347 210.524 24.4795 210.524 24.2197C210.524 23.8916 210.456 23.5954 210.319 23.3311C210.187 23.0622 209.991 22.848 209.731 22.6885C209.472 22.529 209.157 22.4492 208.788 22.4492C208.346 22.4492 207.977 22.5358 207.681 22.709C207.389 22.8776 207.17 23.1146 207.024 23.4199C206.879 23.7253 206.806 24.0762 206.806 24.4727H205.541C205.541 23.9121 205.664 23.3994 205.91 22.9346C206.156 22.4697 206.521 22.1006 207.004 21.8271C207.487 21.5492 208.082 21.4102 208.788 21.4102C209.417 21.4102 209.955 21.5218 210.401 21.7451C210.848 21.9639 211.19 22.2738 211.427 22.6748C211.668 23.0713 211.789 23.5361 211.789 24.0693C211.789 24.361 211.739 24.6572 211.639 24.958C211.543 25.2542 211.409 25.5505 211.235 25.8467C211.067 26.1429 210.868 26.4346 210.641 26.7217C210.417 27.0088 210.178 27.2913 209.923 27.5693L207.257 30.4609H212.247ZM223.8 28.1504V29.1895H216.608V28.4443L221.065 21.5469H222.098L220.99 23.543L218.044 28.1504H223.8ZM222.412 21.5469V31.5H221.147V21.5469H222.412ZM226.548 26.7627L225.536 26.5029L226.035 21.5469H231.142V22.7158H227.108L226.808 25.4229C226.99 25.318 227.22 25.2201 227.498 25.1289C227.781 25.0378 228.104 24.9922 228.469 24.9922C228.929 24.9922 229.341 25.0719 229.706 25.2314C230.071 25.3864 230.381 25.6097 230.636 25.9014C230.896 26.193 231.094 26.5439 231.23 26.9541C231.367 27.3643 231.436 27.8223 231.436 28.3281C231.436 28.8066 231.369 29.2464 231.237 29.6475C231.11 30.0485 230.916 30.3994 230.656 30.7002C230.396 30.9964 230.068 31.2266 229.672 31.3906C229.28 31.5547 228.817 31.6367 228.284 31.6367C227.883 31.6367 227.503 31.582 227.143 31.4727C226.787 31.3587 226.468 31.1878 226.186 30.96C225.908 30.7275 225.68 30.4404 225.502 30.0986C225.329 29.7523 225.219 29.3467 225.174 28.8818H226.377C226.432 29.2555 226.541 29.57 226.705 29.8252C226.869 30.0804 227.083 30.2741 227.348 30.4062C227.617 30.5339 227.929 30.5977 228.284 30.5977C228.585 30.5977 228.852 30.5452 229.084 30.4404C229.316 30.3356 229.512 30.1852 229.672 29.9893C229.831 29.7933 229.952 29.5563 230.034 29.2783C230.121 29.0003 230.164 28.6882 230.164 28.3418C230.164 28.0273 230.121 27.7357 230.034 27.4668C229.948 27.1979 229.818 26.9632 229.645 26.7627C229.476 26.5622 229.269 26.4072 229.022 26.2979C228.776 26.1839 228.494 26.127 228.175 26.127C227.751 26.127 227.43 26.1839 227.211 26.2979C226.997 26.4118 226.776 26.5667 226.548 26.7627ZM234.423 26.7627L233.411 26.5029L233.91 21.5469H239.017V22.7158H234.983L234.683 25.4229C234.865 25.318 235.095 25.2201 235.373 25.1289C235.656 25.0378 235.979 24.9922 236.344 24.9922C236.804 24.9922 237.216 25.0719 237.581 25.2314C237.946 25.3864 238.256 25.6097 238.511 25.9014C238.771 26.193 238.969 26.5439 239.105 26.9541C239.242 27.3643 239.311 27.8223 239.311 28.3281C239.311 28.8066 239.244 29.2464 239.112 29.6475C238.985 30.0485 238.791 30.3994 238.531 30.7002C238.271 30.9964 237.943 31.2266 237.547 31.3906C237.155 31.5547 236.692 31.6367 236.159 31.6367C235.758 31.6367 235.378 31.582 235.018 31.4727C234.662 31.3587 234.343 31.1878 234.061 30.96C233.783 30.7275 233.555 30.4404 233.377 30.0986C233.204 29.7523 233.094 29.3467 233.049 28.8818H234.252C234.307 29.2555 234.416 29.57 234.58 29.8252C234.744 30.0804 234.958 30.2741 235.223 30.4062C235.492 30.5339 235.804 30.5977 236.159 30.5977C236.46 30.5977 236.727 30.5452 236.959 30.4404C237.191 30.3356 237.387 30.1852 237.547 29.9893C237.706 29.7933 237.827 29.5563 237.909 29.2783C237.996 29.0003 238.039 28.6882 238.039 28.3418C238.039 28.0273 237.996 27.7357 237.909 27.4668C237.823 27.1979 237.693 26.9632 237.52 26.7627C237.351 26.5622 237.144 26.4072 236.897 26.2979C236.651 26.1839 236.369 26.127 236.05 26.127C235.626 26.127 235.305 26.1839 235.086 26.2979C234.872 26.4118 234.651 26.5667 234.423 26.7627ZM249.024 21.5332H249.134V22.6064H249.024C248.354 22.6064 247.794 22.7158 247.343 22.9346C246.892 23.1488 246.534 23.4382 246.27 23.8027C246.005 24.1628 245.814 24.5684 245.695 25.0195C245.581 25.4707 245.524 25.9287 245.524 26.3936V27.8564C245.524 28.2985 245.577 28.6904 245.682 29.0322C245.786 29.3695 245.93 29.6543 246.112 29.8867C246.295 30.1191 246.5 30.2946 246.728 30.4131C246.96 30.5316 247.201 30.5908 247.452 30.5908C247.744 30.5908 248.004 30.5361 248.231 30.4268C248.459 30.3128 248.651 30.1556 248.806 29.9551C248.965 29.75 249.086 29.5085 249.168 29.2305C249.25 28.9525 249.291 28.6471 249.291 28.3145C249.291 28.0182 249.255 27.7334 249.182 27.46C249.109 27.182 248.997 26.9359 248.847 26.7217C248.696 26.5029 248.507 26.332 248.279 26.209C248.056 26.0814 247.789 26.0176 247.479 26.0176C247.129 26.0176 246.8 26.1042 246.495 26.2773C246.194 26.446 245.946 26.6693 245.75 26.9473C245.559 27.2207 245.449 27.5192 245.422 27.8428L244.752 27.8359C244.816 27.3255 244.934 26.8903 245.107 26.5303C245.285 26.1657 245.504 25.8695 245.764 25.6416C246.028 25.4092 246.322 25.2406 246.646 25.1357C246.974 25.0264 247.32 24.9717 247.685 24.9717C248.181 24.9717 248.61 25.0651 248.97 25.252C249.33 25.4388 249.626 25.6895 249.858 26.0039C250.091 26.3138 250.262 26.6647 250.371 27.0566C250.485 27.444 250.542 27.8428 250.542 28.2529C250.542 28.7223 250.476 29.1621 250.344 29.5723C250.212 29.9824 250.013 30.3424 249.749 30.6523C249.489 30.9622 249.168 31.2038 248.785 31.377C248.402 31.5501 247.958 31.6367 247.452 31.6367C246.914 31.6367 246.445 31.5273 246.044 31.3086C245.643 31.0853 245.31 30.7891 245.046 30.4199C244.782 30.0508 244.583 29.6406 244.451 29.1895C244.319 28.7383 244.253 28.2803 244.253 27.8154V27.2207C244.253 26.5189 244.324 25.8307 244.465 25.1562C244.606 24.4818 244.85 23.8711 245.196 23.3242C245.547 22.7773 246.033 22.3421 246.652 22.0186C247.272 21.695 248.063 21.5332 249.024 21.5332ZM258.479 21.5469V22.2578L254.356 31.5H253.023L257.139 22.5859H251.752V21.5469H258.479ZM266.196 28.8066C266.196 29.4128 266.055 29.9277 265.772 30.3516C265.494 30.7708 265.116 31.0898 264.638 31.3086C264.164 31.5273 263.628 31.6367 263.031 31.6367C262.434 31.6367 261.896 31.5273 261.418 31.3086C260.939 31.0898 260.561 30.7708 260.283 30.3516C260.005 29.9277 259.866 29.4128 259.866 28.8066C259.866 28.4102 259.941 28.0479 260.092 27.7197C260.247 27.387 260.463 27.0977 260.741 26.8516C261.024 26.6055 261.356 26.4163 261.739 26.2842C262.127 26.1475 262.553 26.0791 263.018 26.0791C263.628 26.0791 264.173 26.1976 264.651 26.4346C265.13 26.667 265.506 26.9883 265.779 27.3984C266.057 27.8086 266.196 28.278 266.196 28.8066ZM264.925 28.7793C264.925 28.4102 264.845 28.0843 264.686 27.8018C264.526 27.5146 264.303 27.2913 264.016 27.1318C263.729 26.9723 263.396 26.8926 263.018 26.8926C262.63 26.8926 262.295 26.9723 262.013 27.1318C261.735 27.2913 261.518 27.5146 261.363 27.8018C261.208 28.0843 261.131 28.4102 261.131 28.7793C261.131 29.1621 261.206 29.4902 261.356 29.7637C261.511 30.0326 261.73 30.2399 262.013 30.3857C262.3 30.527 262.639 30.5977 263.031 30.5977C263.423 30.5977 263.76 30.527 264.043 30.3857C264.326 30.2399 264.542 30.0326 264.692 29.7637C264.847 29.4902 264.925 29.1621 264.925 28.7793ZM265.964 24.1377C265.964 24.6208 265.836 25.056 265.581 25.4434C265.326 25.8307 264.977 26.1361 264.535 26.3594C264.093 26.5827 263.592 26.6943 263.031 26.6943C262.462 26.6943 261.953 26.5827 261.507 26.3594C261.065 26.1361 260.718 25.8307 260.468 25.4434C260.217 25.056 260.092 24.6208 260.092 24.1377C260.092 23.5589 260.217 23.0667 260.468 22.6611C260.723 22.2555 261.072 21.9456 261.514 21.7314C261.956 21.5173 262.459 21.4102 263.024 21.4102C263.594 21.4102 264.1 21.5173 264.542 21.7314C264.984 21.9456 265.33 22.2555 265.581 22.6611C265.836 23.0667 265.964 23.5589 265.964 24.1377ZM264.699 24.1582C264.699 23.8255 264.629 23.5316 264.487 23.2764C264.346 23.0212 264.15 22.8206 263.899 22.6748C263.649 22.5244 263.357 22.4492 263.024 22.4492C262.692 22.4492 262.4 22.5199 262.149 22.6611C261.903 22.7979 261.71 22.9938 261.568 23.249C261.432 23.5042 261.363 23.8073 261.363 24.1582C261.363 24.5 261.432 24.7985 261.568 25.0537C261.71 25.3089 261.906 25.5072 262.156 25.6484C262.407 25.7897 262.699 25.8604 263.031 25.8604C263.364 25.8604 263.653 25.7897 263.899 25.6484C264.15 25.5072 264.346 25.3089 264.487 25.0537C264.629 24.7985 264.699 24.5 264.699 24.1582Z" fill="black"/>
<line x1="282.5" y1="42" x2="282.5" y2="12" stroke="#676767"/>
<path d="M306.479 30.4268V31.5H301.208V30.4268H306.479ZM301.475 21.5469V31.5H300.155V21.5469H301.475ZM305.781 25.8262V26.8994H301.208V25.8262H305.781ZM306.41 21.5469V22.627H301.208V21.5469H306.41ZM309.179 25.5732V31.5H307.907V24.1035H309.11L309.179 25.5732ZM308.919 27.5215L308.331 27.501C308.336 26.9951 308.402 26.528 308.529 26.0996C308.657 25.6667 308.846 25.2907 309.097 24.9717C309.347 24.6527 309.66 24.4066 310.033 24.2334C310.407 24.0557 310.84 23.9668 311.332 23.9668C311.678 23.9668 311.997 24.0169 312.289 24.1172C312.581 24.2129 312.834 24.3656 313.048 24.5752C313.262 24.7848 313.428 25.0537 313.547 25.3818C313.665 25.71 313.725 26.1064 313.725 26.5713V31.5H312.46V26.6328C312.46 26.2454 312.394 25.9355 312.262 25.7031C312.134 25.4707 311.952 25.3021 311.715 25.1973C311.478 25.0879 311.2 25.0332 310.881 25.0332C310.507 25.0332 310.195 25.0993 309.944 25.2314C309.694 25.3636 309.493 25.5459 309.343 25.7783C309.192 26.0107 309.083 26.2773 309.015 26.5781C308.951 26.8743 308.919 27.1888 308.919 27.5215ZM313.711 26.8242L312.863 27.084C312.868 26.6784 312.934 26.2887 313.062 25.915C313.194 25.5413 313.383 25.2087 313.629 24.917C313.88 24.6253 314.187 24.3952 314.552 24.2266C314.916 24.0534 315.333 23.9668 315.803 23.9668C316.199 23.9668 316.55 24.0192 316.855 24.124C317.165 24.2288 317.425 24.3906 317.635 24.6094C317.849 24.8236 318.011 25.0993 318.12 25.4365C318.229 25.7738 318.284 26.1748 318.284 26.6396V31.5H317.013V26.626C317.013 26.2113 316.947 25.89 316.814 25.6621C316.687 25.4297 316.505 25.2679 316.268 25.1768C316.035 25.0811 315.757 25.0332 315.434 25.0332C315.156 25.0332 314.91 25.0811 314.695 25.1768C314.481 25.2725 314.301 25.4046 314.155 25.5732C314.009 25.7373 313.898 25.9264 313.82 26.1406C313.747 26.3548 313.711 26.5827 313.711 26.8242ZM324.56 30.2354V26.4277C324.56 26.1361 324.5 25.8831 324.382 25.6689C324.268 25.4502 324.095 25.2816 323.862 25.1631C323.63 25.0446 323.343 24.9854 323.001 24.9854C322.682 24.9854 322.402 25.04 322.16 25.1494C321.923 25.2588 321.736 25.4023 321.6 25.5801C321.467 25.7578 321.401 25.9492 321.401 26.1543H320.137C320.137 25.89 320.205 25.6279 320.342 25.3682C320.479 25.1084 320.674 24.8737 320.93 24.6641C321.189 24.4499 321.499 24.2812 321.859 24.1582C322.224 24.0306 322.63 23.9668 323.076 23.9668C323.614 23.9668 324.088 24.0579 324.498 24.2402C324.913 24.4225 325.236 24.6982 325.469 25.0674C325.706 25.432 325.824 25.89 325.824 26.4414V29.8867C325.824 30.1328 325.845 30.3949 325.886 30.6729C325.931 30.9508 325.997 31.1901 326.084 31.3906V31.5H324.765C324.701 31.3542 324.651 31.1605 324.614 30.9189C324.578 30.6729 324.56 30.445 324.56 30.2354ZM324.778 27.0156L324.792 27.9043H323.514C323.154 27.9043 322.832 27.9339 322.55 27.9932C322.267 28.0479 322.03 28.1322 321.839 28.2461C321.647 28.36 321.502 28.5036 321.401 28.6768C321.301 28.8454 321.251 29.0436 321.251 29.2715C321.251 29.5039 321.303 29.7158 321.408 29.9072C321.513 30.0986 321.67 30.2513 321.88 30.3652C322.094 30.4746 322.356 30.5293 322.666 30.5293C323.053 30.5293 323.395 30.4473 323.691 30.2832C323.988 30.1191 324.222 29.9186 324.396 29.6816C324.573 29.4447 324.669 29.2145 324.683 28.9912L325.223 29.5996C325.191 29.791 325.104 30.0029 324.963 30.2354C324.822 30.4678 324.632 30.6911 324.396 30.9053C324.163 31.1149 323.885 31.2904 323.562 31.4316C323.243 31.5684 322.882 31.6367 322.481 31.6367C321.98 31.6367 321.54 31.5387 321.162 31.3428C320.788 31.1468 320.497 30.8848 320.287 30.5566C320.082 30.224 319.979 29.8525 319.979 29.4424C319.979 29.0459 320.057 28.6973 320.212 28.3965C320.367 28.0911 320.59 27.8382 320.882 27.6377C321.174 27.4326 321.524 27.2777 321.935 27.1729C322.345 27.068 322.803 27.0156 323.309 27.0156H324.778ZM329.188 24.1035V31.5H327.916V24.1035H329.188ZM327.82 22.1416C327.82 21.9365 327.882 21.7633 328.005 21.6221C328.132 21.4808 328.319 21.4102 328.565 21.4102C328.807 21.4102 328.992 21.4808 329.119 21.6221C329.251 21.7633 329.317 21.9365 329.317 22.1416C329.317 22.3376 329.251 22.5062 329.119 22.6475C328.992 22.7842 328.807 22.8525 328.565 22.8525C328.319 22.8525 328.132 22.7842 328.005 22.6475C327.882 22.5062 327.82 22.3376 327.82 22.1416ZM332.592 21V31.5H331.32V21H332.592ZM334.567 30.8301C334.567 30.6159 334.633 30.4359 334.766 30.29C334.902 30.1396 335.098 30.0645 335.354 30.0645C335.609 30.0645 335.802 30.1396 335.935 30.29C336.071 30.4359 336.14 30.6159 336.14 30.8301C336.14 31.0397 336.071 31.2174 335.935 31.3633C335.802 31.5091 335.609 31.582 335.354 31.582C335.098 31.582 334.902 31.5091 334.766 31.3633C334.633 31.2174 334.567 31.0397 334.567 30.8301ZM334.574 24.7939C334.574 24.5798 334.64 24.3997 334.772 24.2539C334.909 24.1035 335.105 24.0283 335.36 24.0283C335.616 24.0283 335.809 24.1035 335.941 24.2539C336.078 24.3997 336.146 24.5798 336.146 24.7939C336.146 25.0036 336.078 25.1813 335.941 25.3271C335.809 25.473 335.616 25.5459 335.36 25.5459C335.105 25.5459 334.909 25.473 334.772 25.3271C334.64 25.1813 334.574 25.0036 334.574 24.7939ZM339.387 24.1035V31.5H338.115V24.1035H339.387ZM338.02 22.1416C338.02 21.9365 338.081 21.7633 338.204 21.6221C338.332 21.4808 338.519 21.4102 338.765 21.4102C339.006 21.4102 339.191 21.4808 339.318 21.6221C339.451 21.7633 339.517 21.9365 339.517 22.1416C339.517 22.3376 339.451 22.5062 339.318 22.6475C339.191 22.7842 339.006 22.8525 338.765 22.8525C338.519 22.8525 338.332 22.7842 338.204 22.6475C338.081 22.5062 338.02 22.3376 338.02 22.1416ZM342.682 25.6826V31.5H341.417V24.1035H342.613L342.682 25.6826ZM342.381 27.5215L341.854 27.501C341.859 26.9951 341.934 26.528 342.08 26.0996C342.226 25.6667 342.431 25.2907 342.695 24.9717C342.96 24.6527 343.274 24.4066 343.639 24.2334C344.008 24.0557 344.416 23.9668 344.862 23.9668C345.227 23.9668 345.555 24.0169 345.847 24.1172C346.138 24.2129 346.387 24.3678 346.592 24.582C346.801 24.7962 346.961 25.0742 347.07 25.416C347.18 25.7533 347.234 26.1657 347.234 26.6533V31.5H345.963V26.6396C345.963 26.2523 345.906 25.9424 345.792 25.71C345.678 25.473 345.512 25.3021 345.293 25.1973C345.074 25.0879 344.805 25.0332 344.486 25.0332C344.172 25.0332 343.885 25.0993 343.625 25.2314C343.37 25.3636 343.149 25.5459 342.962 25.7783C342.78 26.0107 342.636 26.2773 342.531 26.5781C342.431 26.8743 342.381 27.1888 342.381 27.5215ZM351.042 31.5H349.777V23.3242C349.777 22.791 349.873 22.3421 350.064 21.9775C350.26 21.6084 350.541 21.3304 350.905 21.1436C351.27 20.9521 351.703 20.8564 352.204 20.8564C352.35 20.8564 352.496 20.8656 352.642 20.8838C352.792 20.902 352.938 20.9294 353.079 20.9658L353.011 21.998C352.915 21.9753 352.806 21.9593 352.683 21.9502C352.564 21.9411 352.446 21.9365 352.327 21.9365C352.058 21.9365 351.826 21.9912 351.63 22.1006C351.438 22.2054 351.293 22.3604 351.192 22.5654C351.092 22.7705 351.042 23.0234 351.042 23.3242V31.5ZM352.614 24.1035V25.0742H348.608V24.1035H352.614ZM353.688 27.8838V27.7266C353.688 27.1934 353.765 26.6989 353.92 26.2432C354.075 25.7829 354.298 25.3841 354.59 25.0469C354.882 24.7051 355.235 24.4408 355.649 24.2539C356.064 24.0625 356.529 23.9668 357.044 23.9668C357.563 23.9668 358.031 24.0625 358.445 24.2539C358.865 24.4408 359.22 24.7051 359.512 25.0469C359.808 25.3841 360.034 25.7829 360.188 26.2432C360.343 26.6989 360.421 27.1934 360.421 27.7266V27.8838C360.421 28.417 360.343 28.9115 360.188 29.3672C360.034 29.8229 359.808 30.2217 359.512 30.5635C359.22 30.9007 358.867 31.165 358.452 31.3564C358.042 31.5433 357.577 31.6367 357.058 31.6367C356.538 31.6367 356.071 31.5433 355.656 31.3564C355.242 31.165 354.886 30.9007 354.59 30.5635C354.298 30.2217 354.075 29.8229 353.92 29.3672C353.765 28.9115 353.688 28.417 353.688 27.8838ZM354.952 27.7266V27.8838C354.952 28.2529 354.995 28.6016 355.082 28.9297C355.169 29.2533 355.299 29.5404 355.472 29.791C355.649 30.0417 355.87 30.2399 356.135 30.3857C356.399 30.527 356.707 30.5977 357.058 30.5977C357.404 30.5977 357.707 30.527 357.967 30.3857C358.231 30.2399 358.45 30.0417 358.623 29.791C358.796 29.5404 358.926 29.2533 359.013 28.9297C359.104 28.6016 359.149 28.2529 359.149 27.8838V27.7266C359.149 27.362 359.104 27.0179 359.013 26.6943C358.926 26.3662 358.794 26.0768 358.616 25.8262C358.443 25.571 358.224 25.3704 357.96 25.2246C357.7 25.0788 357.395 25.0059 357.044 25.0059C356.698 25.0059 356.392 25.0788 356.128 25.2246C355.868 25.3704 355.649 25.571 355.472 25.8262C355.299 26.0768 355.169 26.3662 355.082 26.6943C354.995 27.0179 354.952 27.362 354.952 27.7266ZM372.91 28.0615C372.892 28.4808 372.828 28.9023 372.719 29.3262C372.609 29.7454 372.445 30.1305 372.227 30.4814C372.008 30.8324 371.723 31.1149 371.372 31.3291C371.026 31.5387 370.606 31.6436 370.114 31.6436C369.8 31.6436 369.524 31.5889 369.287 31.4795C369.055 31.3656 368.863 31.2038 368.713 30.9941C368.567 30.7845 368.465 30.5316 368.405 30.2354C368.351 29.9391 368.341 29.6087 368.378 29.2441L368.727 25.457H369.731L369.383 29.2441C369.355 29.5768 369.362 29.848 369.403 30.0576C369.449 30.2673 369.517 30.429 369.608 30.543C369.7 30.6523 369.802 30.7275 369.916 30.7686C370.035 30.8096 370.148 30.8301 370.258 30.8301C370.531 30.8301 370.775 30.7594 370.989 30.6182C371.203 30.4723 371.383 30.2741 371.529 30.0234C371.68 29.7682 371.796 29.4743 371.878 29.1416C371.96 28.8044 372.01 28.4443 372.028 28.0615C372.06 27.3825 372.028 26.7581 371.933 26.1885C371.841 25.6188 371.684 25.113 371.461 24.6709C371.242 24.2288 370.955 23.8551 370.6 23.5498C370.244 23.2445 369.82 23.012 369.328 22.8525C368.836 22.693 368.273 22.6133 367.64 22.6133C367.065 22.6133 366.535 22.7021 366.047 22.8799C365.564 23.0531 365.129 23.3037 364.741 23.6318C364.358 23.96 364.028 24.3542 363.75 24.8145C363.477 25.2747 363.26 25.7943 363.101 26.373C362.946 26.9473 362.854 27.5671 362.827 28.2324C362.795 28.916 362.832 29.5449 362.937 30.1191C363.041 30.6888 363.21 31.1969 363.442 31.6436C363.679 32.0947 363.978 32.4753 364.338 32.7852C364.698 33.0996 365.115 33.3366 365.589 33.4961C366.063 33.6602 366.591 33.7422 367.175 33.7422C367.576 33.7422 367.981 33.6943 368.392 33.5986C368.806 33.5029 369.153 33.373 369.431 33.209L369.69 33.9883C369.371 34.1934 368.973 34.346 368.494 34.4463C368.02 34.5465 367.571 34.5967 367.147 34.5967C366.455 34.5967 365.821 34.501 365.247 34.3096C364.677 34.1227 364.172 33.847 363.729 33.4824C363.292 33.1224 362.927 32.6826 362.636 32.1631C362.344 31.6481 362.13 31.0602 361.993 30.3994C361.856 29.7386 361.804 29.0163 361.836 28.2324C361.868 27.485 361.979 26.7809 362.171 26.1201C362.367 25.4593 362.633 24.86 362.971 24.3223C363.308 23.7845 363.709 23.3219 364.174 22.9346C364.643 22.5426 365.17 22.2419 365.753 22.0322C366.341 21.8226 366.979 21.7178 367.667 21.7178C368.369 21.7178 369.005 21.8135 369.574 22.0049C370.144 22.1963 370.643 22.472 371.071 22.832C371.504 23.1921 371.862 23.6318 372.145 24.1514C372.427 24.6709 372.632 25.2588 372.76 25.915C372.892 26.5713 372.942 27.2868 372.91 28.0615ZM365.89 28.6426C365.858 28.9616 365.858 29.2464 365.89 29.4971C365.922 29.7477 365.983 29.9596 366.074 30.1328C366.165 30.306 366.284 30.4382 366.43 30.5293C366.58 30.6159 366.756 30.6592 366.956 30.6592C367.088 30.6592 367.227 30.6273 367.373 30.5635C367.519 30.4951 367.662 30.3903 367.804 30.249C367.945 30.1077 368.077 29.9232 368.2 29.6953C368.323 29.4674 368.426 29.194 368.508 28.875L368.959 29.3672C368.854 29.7409 368.717 30.069 368.549 30.3516C368.385 30.6341 368.2 30.8711 367.995 31.0625C367.79 31.2539 367.571 31.3997 367.339 31.5C367.111 31.5957 366.879 31.6436 366.642 31.6436C366.309 31.6436 366.017 31.5729 365.767 31.4316C365.516 31.2858 365.313 31.0807 365.158 30.8164C365.003 30.5521 364.894 30.2376 364.83 29.873C364.771 29.5039 364.762 29.0938 364.803 28.6426C364.844 28.1641 364.928 27.722 365.056 27.3164C365.183 26.9108 365.34 26.5485 365.527 26.2295C365.719 25.9105 365.933 25.6393 366.17 25.416C366.411 25.1927 366.667 25.0241 366.936 24.9102C367.204 24.7917 367.48 24.7324 367.763 24.7324C368.255 24.7324 368.642 24.8053 368.925 24.9512C369.207 25.0924 369.476 25.2611 369.731 25.457L369.15 26.1338C369.018 26.0062 368.845 25.8877 368.631 25.7783C368.417 25.6689 368.164 25.6143 367.872 25.6143C367.621 25.6143 367.387 25.6781 367.168 25.8057C366.949 25.9333 366.751 26.1247 366.573 26.3799C366.4 26.6351 366.254 26.9518 366.136 27.3301C366.017 27.7038 365.935 28.1413 365.89 28.6426ZM379.247 30.0645V21H380.519V31.5H379.356L379.247 30.0645ZM374.271 27.8838V27.7402C374.271 27.1751 374.339 26.6624 374.476 26.2021C374.617 25.7373 374.815 25.3385 375.07 25.0059C375.33 24.6732 375.638 24.418 375.993 24.2402C376.353 24.0579 376.754 23.9668 377.196 23.9668C377.661 23.9668 378.067 24.0488 378.413 24.2129C378.764 24.3724 379.06 24.6071 379.302 24.917C379.548 25.2223 379.742 25.5915 379.883 26.0244C380.024 26.4574 380.122 26.9473 380.177 27.4941V28.123C380.127 28.6654 380.029 29.153 379.883 29.5859C379.742 30.0189 379.548 30.388 379.302 30.6934C379.06 30.9987 378.764 31.2334 378.413 31.3975C378.062 31.557 377.652 31.6367 377.183 31.6367C376.75 31.6367 376.353 31.5433 375.993 31.3564C375.638 31.1696 375.33 30.9076 375.07 30.5703C374.815 30.2331 374.617 29.8366 374.476 29.3809C374.339 28.9206 374.271 28.4215 374.271 27.8838ZM375.542 27.7402V27.8838C375.542 28.2529 375.578 28.5993 375.651 28.9229C375.729 29.2464 375.847 29.5312 376.007 29.7773C376.166 30.0234 376.369 30.2171 376.615 30.3584C376.861 30.4951 377.155 30.5635 377.497 30.5635C377.916 30.5635 378.26 30.4746 378.529 30.2969C378.803 30.1191 379.021 29.8844 379.186 29.5928C379.35 29.3011 379.477 28.9844 379.568 28.6426V26.9951C379.514 26.7445 379.434 26.5029 379.329 26.2705C379.229 26.0335 379.097 25.8239 378.933 25.6416C378.773 25.4548 378.575 25.3066 378.338 25.1973C378.105 25.0879 377.83 25.0332 377.511 25.0332C377.164 25.0332 376.866 25.1061 376.615 25.252C376.369 25.3932 376.166 25.5892 376.007 25.8398C375.847 26.0859 375.729 26.373 375.651 26.7012C375.578 27.0247 375.542 27.3711 375.542 27.7402ZM387.149 30.0645V21H388.421V31.5H387.259L387.149 30.0645ZM382.173 27.8838V27.7402C382.173 27.1751 382.241 26.6624 382.378 26.2021C382.519 25.7373 382.717 25.3385 382.973 25.0059C383.232 24.6732 383.54 24.418 383.896 24.2402C384.256 24.0579 384.657 23.9668 385.099 23.9668C385.563 23.9668 385.969 24.0488 386.315 24.2129C386.666 24.3724 386.963 24.6071 387.204 24.917C387.45 25.2223 387.644 25.5915 387.785 26.0244C387.926 26.4574 388.024 26.9473 388.079 27.4941V28.123C388.029 28.6654 387.931 29.153 387.785 29.5859C387.644 30.0189 387.45 30.388 387.204 30.6934C386.963 30.9987 386.666 31.2334 386.315 31.3975C385.965 31.557 385.554 31.6367 385.085 31.6367C384.652 31.6367 384.256 31.5433 383.896 31.3564C383.54 31.1696 383.232 30.9076 382.973 30.5703C382.717 30.2331 382.519 29.8366 382.378 29.3809C382.241 28.9206 382.173 28.4215 382.173 27.8838ZM383.444 27.7402V27.8838C383.444 28.2529 383.481 28.5993 383.554 28.9229C383.631 29.2464 383.75 29.5312 383.909 29.7773C384.069 30.0234 384.271 30.2171 384.518 30.3584C384.764 30.4951 385.058 30.5635 385.399 30.5635C385.819 30.5635 386.163 30.4746 386.432 30.2969C386.705 30.1191 386.924 29.8844 387.088 29.5928C387.252 29.3011 387.38 28.9844 387.471 28.6426V26.9951C387.416 26.7445 387.336 26.5029 387.231 26.2705C387.131 26.0335 386.999 25.8239 386.835 25.6416C386.675 25.4548 386.477 25.3066 386.24 25.1973C386.008 25.0879 385.732 25.0332 385.413 25.0332C385.067 25.0332 384.768 25.1061 384.518 25.252C384.271 25.3932 384.069 25.5892 383.909 25.8398C383.75 26.0859 383.631 26.373 383.554 26.7012C383.481 27.0247 383.444 27.3711 383.444 27.7402ZM394.696 29.5381C394.696 29.3558 394.655 29.1872 394.573 29.0322C394.496 28.8727 394.334 28.7292 394.088 28.6016C393.846 28.4694 393.482 28.3555 392.994 28.2598C392.584 28.1732 392.213 28.0706 391.88 27.9521C391.552 27.8337 391.271 27.6901 391.039 27.5215C390.811 27.3529 390.636 27.1546 390.513 26.9268C390.39 26.6989 390.328 26.4323 390.328 26.127C390.328 25.8353 390.392 25.5596 390.52 25.2998C390.652 25.04 390.836 24.8099 391.073 24.6094C391.315 24.4089 391.604 24.2516 391.941 24.1377C392.279 24.0238 392.655 23.9668 393.069 23.9668C393.662 23.9668 394.168 24.0716 394.587 24.2812C395.006 24.4909 395.327 24.7712 395.551 25.1221C395.774 25.4684 395.886 25.8535 395.886 26.2773H394.621C394.621 26.0723 394.56 25.874 394.437 25.6826C394.318 25.4867 394.143 25.3249 393.91 25.1973C393.682 25.0697 393.402 25.0059 393.069 25.0059C392.718 25.0059 392.434 25.0605 392.215 25.1699C392.001 25.2747 391.843 25.4092 391.743 25.5732C391.647 25.7373 391.6 25.9105 391.6 26.0928C391.6 26.2295 391.622 26.3525 391.668 26.4619C391.718 26.5667 391.805 26.6647 391.928 26.7559C392.051 26.8424 392.224 26.9245 392.447 27.002C392.671 27.0794 392.955 27.1569 393.302 27.2344C393.908 27.3711 394.407 27.5352 394.799 27.7266C395.191 27.918 395.482 28.1527 395.674 28.4307C395.865 28.7087 395.961 29.0459 395.961 29.4424C395.961 29.766 395.893 30.0622 395.756 30.3311C395.624 30.5999 395.43 30.8324 395.175 31.0283C394.924 31.2197 394.623 31.3701 394.272 31.4795C393.926 31.5843 393.536 31.6367 393.104 31.6367C392.452 31.6367 391.9 31.5205 391.449 31.2881C390.998 31.0557 390.656 30.7549 390.424 30.3857C390.191 30.0166 390.075 29.627 390.075 29.2168H391.347C391.365 29.5632 391.465 29.8389 391.647 30.0439C391.83 30.2445 392.053 30.388 392.317 30.4746C392.582 30.5566 392.844 30.5977 393.104 30.5977C393.45 30.5977 393.739 30.5521 393.972 30.4609C394.209 30.3698 394.389 30.2445 394.512 30.085C394.635 29.9255 394.696 29.7432 394.696 29.5381ZM402.414 24.1035H403.562V31.3428C403.562 31.9945 403.43 32.5505 403.166 33.0107C402.902 33.471 402.533 33.8197 402.059 34.0566C401.589 34.2982 401.047 34.4189 400.432 34.4189C400.176 34.4189 399.876 34.3779 399.529 34.2959C399.188 34.2184 398.85 34.084 398.518 33.8926C398.189 33.7057 397.914 33.4528 397.69 33.1338L398.354 32.3818C398.663 32.7555 398.987 33.0153 399.324 33.1611C399.666 33.307 400.003 33.3799 400.336 33.3799C400.737 33.3799 401.083 33.3047 401.375 33.1543C401.667 33.0039 401.892 32.7806 402.052 32.4844C402.216 32.1927 402.298 31.8327 402.298 31.4043V25.7305L402.414 24.1035ZM397.321 27.8838V27.7402C397.321 27.1751 397.387 26.6624 397.52 26.2021C397.656 25.7373 397.85 25.3385 398.101 25.0059C398.356 24.6732 398.663 24.418 399.023 24.2402C399.383 24.0579 399.789 23.9668 400.24 23.9668C400.705 23.9668 401.111 24.0488 401.457 24.2129C401.808 24.3724 402.104 24.6071 402.346 24.917C402.592 25.2223 402.785 25.5915 402.927 26.0244C403.068 26.4574 403.166 26.9473 403.221 27.4941V28.123C403.171 28.6654 403.073 29.153 402.927 29.5859C402.785 30.0189 402.592 30.388 402.346 30.6934C402.104 30.9987 401.808 31.2334 401.457 31.3975C401.106 31.557 400.696 31.6367 400.227 31.6367C399.785 31.6367 399.383 31.5433 399.023 31.3564C398.668 31.1696 398.363 30.9076 398.107 30.5703C397.852 30.2331 397.656 29.8366 397.52 29.3809C397.387 28.9206 397.321 28.4215 397.321 27.8838ZM398.586 27.7402V27.8838C398.586 28.2529 398.622 28.5993 398.695 28.9229C398.773 29.2464 398.889 29.5312 399.044 29.7773C399.203 30.0234 399.406 30.2171 399.652 30.3584C399.898 30.4951 400.192 30.5635 400.534 30.5635C400.953 30.5635 401.3 30.4746 401.573 30.2969C401.847 30.1191 402.063 29.8844 402.223 29.5928C402.387 29.3011 402.514 28.9844 402.605 28.6426V26.9951C402.555 26.7445 402.478 26.5029 402.373 26.2705C402.273 26.0335 402.141 25.8239 401.977 25.6416C401.817 25.4548 401.619 25.3066 401.382 25.1973C401.145 25.0879 400.867 25.0332 400.548 25.0332C400.201 25.0332 399.903 25.1061 399.652 25.252C399.406 25.3932 399.203 25.5892 399.044 25.8398C398.889 26.0859 398.773 26.373 398.695 26.7012C398.622 27.0247 398.586 27.3711 398.586 27.7402ZM406.748 25.6826V31.5H405.483V24.1035H406.68L406.748 25.6826ZM406.447 27.5215L405.921 27.501C405.925 26.9951 406.001 26.528 406.146 26.0996C406.292 25.6667 406.497 25.2907 406.762 24.9717C407.026 24.6527 407.34 24.4066 407.705 24.2334C408.074 24.0557 408.482 23.9668 408.929 23.9668C409.293 23.9668 409.621 24.0169 409.913 24.1172C410.205 24.2129 410.453 24.3678 410.658 24.582C410.868 24.7962 411.027 25.0742 411.137 25.416C411.246 25.7533 411.301 26.1657 411.301 26.6533V31.5H410.029V26.6396C410.029 26.2523 409.972 25.9424 409.858 25.71C409.744 25.473 409.578 25.3021 409.359 25.1973C409.141 25.0879 408.872 25.0332 408.553 25.0332C408.238 25.0332 407.951 25.0993 407.691 25.2314C407.436 25.3636 407.215 25.5459 407.028 25.7783C406.846 26.0107 406.702 26.2773 406.598 26.5781C406.497 26.8743 406.447 27.1888 406.447 27.5215ZM414.486 25.2656V31.5H413.222V24.1035H414.452L414.486 25.2656ZM416.797 24.0625L416.79 25.2383C416.685 25.2155 416.585 25.2018 416.489 25.1973C416.398 25.1882 416.293 25.1836 416.175 25.1836C415.883 25.1836 415.626 25.2292 415.402 25.3203C415.179 25.4115 414.99 25.5391 414.835 25.7031C414.68 25.8672 414.557 26.0632 414.466 26.291C414.379 26.5143 414.322 26.7604 414.295 27.0293L413.939 27.2344C413.939 26.7878 413.983 26.3685 414.069 25.9766C414.16 25.5846 414.299 25.2383 414.486 24.9375C414.673 24.6322 414.91 24.3952 415.197 24.2266C415.489 24.0534 415.835 23.9668 416.236 23.9668C416.327 23.9668 416.432 23.9782 416.551 24.001C416.669 24.0192 416.751 24.0397 416.797 24.0625ZM417.139 30.8301C417.139 30.6159 417.205 30.4359 417.337 30.29C417.474 30.1396 417.67 30.0645 417.925 30.0645C418.18 30.0645 418.374 30.1396 418.506 30.29C418.643 30.4359 418.711 30.6159 418.711 30.8301C418.711 31.0397 418.643 31.2174 418.506 31.3633C418.374 31.5091 418.18 31.582 417.925 31.582C417.67 31.582 417.474 31.5091 417.337 31.3633C417.205 31.2174 417.139 31.0397 417.139 30.8301ZM423.77 30.5977C424.07 30.5977 424.348 30.5361 424.604 30.4131C424.859 30.29 425.068 30.1214 425.232 29.9072C425.396 29.6885 425.49 29.4401 425.513 29.1621H426.716C426.693 29.5996 426.545 30.0075 426.271 30.3857C426.003 30.7594 425.649 31.0625 425.212 31.2949C424.774 31.5228 424.294 31.6367 423.77 31.6367C423.214 31.6367 422.728 31.5387 422.313 31.3428C421.903 31.1468 421.562 30.8779 421.288 30.5361C421.019 30.1943 420.816 29.8024 420.68 29.3604C420.548 28.9137 420.481 28.4421 420.481 27.9453V27.6582C420.481 27.1615 420.548 26.6921 420.68 26.25C420.816 25.8034 421.019 25.4092 421.288 25.0674C421.562 24.7256 421.903 24.4567 422.313 24.2607C422.728 24.0648 423.214 23.9668 423.77 23.9668C424.348 23.9668 424.854 24.0853 425.287 24.3223C425.72 24.5547 426.06 24.8737 426.306 25.2793C426.556 25.6803 426.693 26.1361 426.716 26.6465H425.513C425.49 26.3411 425.403 26.0654 425.253 25.8193C425.107 25.5732 424.907 25.3773 424.651 25.2314C424.401 25.0811 424.107 25.0059 423.77 25.0059C423.382 25.0059 423.056 25.0833 422.792 25.2383C422.532 25.3887 422.325 25.5938 422.17 25.8535C422.02 26.1087 421.91 26.3936 421.842 26.708C421.778 27.0179 421.746 27.3346 421.746 27.6582V27.9453C421.746 28.2689 421.778 28.5879 421.842 28.9023C421.906 29.2168 422.013 29.5016 422.163 29.7568C422.318 30.012 422.525 30.2171 422.785 30.3721C423.049 30.5225 423.378 30.5977 423.77 30.5977ZM427.803 27.8838V27.7266C427.803 27.1934 427.88 26.6989 428.035 26.2432C428.19 25.7829 428.413 25.3841 428.705 25.0469C428.997 24.7051 429.35 24.4408 429.765 24.2539C430.179 24.0625 430.644 23.9668 431.159 23.9668C431.679 23.9668 432.146 24.0625 432.561 24.2539C432.98 24.4408 433.335 24.7051 433.627 25.0469C433.923 25.3841 434.149 25.7829 434.304 26.2432C434.459 26.6989 434.536 27.1934 434.536 27.7266V27.8838C434.536 28.417 434.459 28.9115 434.304 29.3672C434.149 29.8229 433.923 30.2217 433.627 30.5635C433.335 30.9007 432.982 31.165 432.567 31.3564C432.157 31.5433 431.692 31.6367 431.173 31.6367C430.653 31.6367 430.186 31.5433 429.771 31.3564C429.357 31.165 429.001 30.9007 428.705 30.5635C428.413 30.2217 428.19 29.8229 428.035 29.3672C427.88 28.9115 427.803 28.417 427.803 27.8838ZM429.067 27.7266V27.8838C429.067 28.2529 429.111 28.6016 429.197 28.9297C429.284 29.2533 429.414 29.5404 429.587 29.791C429.765 30.0417 429.986 30.2399 430.25 30.3857C430.514 30.527 430.822 30.5977 431.173 30.5977C431.519 30.5977 431.822 30.527 432.082 30.3857C432.346 30.2399 432.565 30.0417 432.738 29.791C432.911 29.5404 433.041 29.2533 433.128 28.9297C433.219 28.6016 433.265 28.2529 433.265 27.8838V27.7266C433.265 27.362 433.219 27.0179 433.128 26.6943C433.041 26.3662 432.909 26.0768 432.731 25.8262C432.558 25.571 432.34 25.3704 432.075 25.2246C431.815 25.0788 431.51 25.0059 431.159 25.0059C430.813 25.0059 430.507 25.0788 430.243 25.2246C429.983 25.3704 429.765 25.571 429.587 25.8262C429.414 26.0768 429.284 26.3662 429.197 26.6943C429.111 27.0179 429.067 27.362 429.067 27.7266ZM437.38 25.5732V31.5H436.108V24.1035H437.312L437.38 25.5732ZM437.12 27.5215L436.532 27.501C436.537 26.9951 436.603 26.528 436.73 26.0996C436.858 25.6667 437.047 25.2907 437.298 24.9717C437.549 24.6527 437.861 24.4066 438.234 24.2334C438.608 24.0557 439.041 23.9668 439.533 23.9668C439.88 23.9668 440.199 24.0169 440.49 24.1172C440.782 24.2129 441.035 24.3656 441.249 24.5752C441.463 24.7848 441.63 25.0537 441.748 25.3818C441.867 25.71 441.926 26.1064 441.926 26.5713V31.5H440.661V26.6328C440.661 26.2454 440.595 25.9355 440.463 25.7031C440.335 25.4707 440.153 25.3021 439.916 25.1973C439.679 25.0879 439.401 25.0332 439.082 25.0332C438.708 25.0332 438.396 25.0993 438.146 25.2314C437.895 25.3636 437.694 25.5459 437.544 25.7783C437.394 26.0107 437.284 26.2773 437.216 26.5781C437.152 26.8743 437.12 27.1888 437.12 27.5215ZM441.912 26.8242L441.064 27.084C441.069 26.6784 441.135 26.2887 441.263 25.915C441.395 25.5413 441.584 25.2087 441.83 24.917C442.081 24.6253 442.388 24.3952 442.753 24.2266C443.118 24.0534 443.535 23.9668 444.004 23.9668C444.4 23.9668 444.751 24.0192 445.057 24.124C445.367 24.2288 445.626 24.3906 445.836 24.6094C446.05 24.8236 446.212 25.0993 446.321 25.4365C446.431 25.7738 446.485 26.1748 446.485 26.6396V31.5H445.214V26.626C445.214 26.2113 445.148 25.89 445.016 25.6621C444.888 25.4297 444.706 25.2679 444.469 25.1768C444.236 25.0811 443.958 25.0332 443.635 25.0332C443.357 25.0332 443.111 25.0811 442.896 25.1768C442.682 25.2725 442.502 25.4046 442.356 25.5732C442.211 25.7373 442.099 25.9264 442.021 26.1406C441.949 26.3548 441.912 26.5827 441.912 26.8242Z" fill="black"/>
<path d="M1100.5 21H1097.5C1096.95 21 1096.5 21.4477 1096.5 22V25H1100.5C1100.61 24.9975 1100.72 25.0504 1100.79 25.1419C1100.86 25.2334 1100.88 25.352 1100.84 25.46L1100.1 27.66C1100.03 27.8619 1099.84 27.9984 1099.63 28H1096.5V35.5C1096.5 35.7761 1096.28 36 1096 36H1093.5C1093.22 36 1093 35.7761 1093 35.5V28H1091.5C1091.22 28 1091 27.7761 1091 27.5V25.5C1091 25.2239 1091.22 25 1091.5 25H1093V22C1093 19.7909 1094.79 18 1097 18H1100.5C1100.78 18 1101 18.2239 1101 18.5V20.5C1101 20.7761 1100.78 21 1100.5 21Z" fill="black"/>
<path fill-rule="evenodd" clip-rule="evenodd" d="M1136 18H1128C1125.24 18 1123 20.2386 1123 23V31C1123 33.7614 1125.24 36 1128 36H1136C1138.76 36 1141 33.7614 1141 31V23C1141 20.2386 1138.76 18 1136 18ZM1139.25 31C1139.24 32.7926 1137.79 34.2445 1136 34.25H1128C1126.21 34.2445 1124.76 32.7926 1124.75 31V23C1124.76 21.2074 1126.21 19.7555 1128 19.75H1136C1137.79 19.7555 1139.24 21.2074 1139.25 23V31ZM1136.75 23.25C1137.3 23.25 1137.75 22.8023 1137.75 22.25C1137.75 21.6977 1137.3 21.25 1136.75 21.25C1136.2 21.25 1135.75 21.6977 1135.75 22.25C1135.75 22.8023 1136.2 23.25 1136.75 23.25ZM1132 22.5C1129.51 22.5 1127.5 24.5147 1127.5 27C1127.5 29.4853 1129.51 31.5 1132 31.5C1134.49 31.5 1136.5 29.4853 1136.5 27C1136.5 25.8057 1136.03 24.6596 1135.18 23.8151C1134.34 22.9706 1133.19 22.4973 1132 22.5ZM1129.25 27C1129.25 28.5188 1130.48 29.75 1132 29.75C1133.52 29.75 1134.75 28.5188 1134.75 27C1134.75 25.4812 1133.52 24.25 1132 24.25C1130.48 24.25 1129.25 25.4812 1129.25 27Z" fill="black"/>
<path d="M1176.97 21.7174C1176.51 22.3369 1175.95 22.8773 1175.31 23.3178C1175.31 23.4796 1175.31 23.6414 1175.31 23.8123C1175.32 26.7511 1174.14 29.5691 1172.05 31.6345C1169.96 33.6999 1167.13 34.8399 1164.19 34.7989C1162.5 34.8046 1160.82 34.4169 1159.3 33.6661C1159.21 33.6302 1159.16 33.549 1159.16 33.4593V33.3604C1159.16 33.2313 1159.27 33.1267 1159.4 33.1267C1161.06 33.0716 1162.67 32.4929 1164 31.4724C1162.49 31.4419 1161.13 30.5469 1160.5 29.1707C1160.47 29.0956 1160.48 29.0093 1160.53 28.9432C1160.57 28.8771 1160.65 28.8407 1160.73 28.8471C1161.19 28.8932 1161.66 28.8505 1162.1 28.7212C1160.43 28.375 1159.18 26.9904 1159 25.2957C1158.99 25.2144 1159.03 25.1357 1159.1 25.0879C1159.16 25.0402 1159.25 25.0303 1159.32 25.062C1159.77 25.2595 1160.25 25.3635 1160.74 25.3676C1159.28 24.4085 1158.65 22.5841 1159.21 20.9262C1159.26 20.7651 1159.4 20.6461 1159.57 20.6129C1159.74 20.5798 1159.91 20.6373 1160.02 20.7644C1162 22.8633 1164.71 24.114 1167.58 24.2528C1167.51 23.9589 1167.47 23.6568 1167.47 23.3537C1167.5 21.7647 1168.48 20.3492 1169.96 19.7699C1171.44 19.1905 1173.12 19.562 1174.22 20.7104C1174.97 20.5679 1175.7 20.3165 1176.37 19.9642C1176.42 19.9333 1176.48 19.9333 1176.53 19.9642C1176.56 20.0137 1176.56 20.0765 1176.53 20.126C1176.21 20.8755 1175.65 21.5041 1174.95 21.9242C1175.57 21.853 1176.17 21.7081 1176.75 21.4926C1176.8 21.4594 1176.86 21.4594 1176.91 21.4926C1176.95 21.5113 1176.98 21.5471 1176.99 21.5904C1177.01 21.6337 1177 21.6802 1176.97 21.7174Z" fill="black"/>
<path fill-rule="evenodd" clip-rule="evenodd" d="M1197 18H1211C1212.1 18 1213 18.8954 1213 20V34C1213 35.1046 1212.1 36 1211 36H1197C1195.9 36 1195 35.1046 1195 34V20C1195 18.8954 1195.9 18 1197 18ZM1200 33C1200.28 33 1200.5 32.7761 1200.5 32.5V25.5C1200.5 25.2239 1200.28 25 1200 25H1198.5C1198.22 25 1198 25.2239 1198 25.5V32.5C1198 32.7761 1198.22 33 1198.5 33H1200ZM1199.25 24C1198.42 24 1197.75 23.3284 1197.75 22.5C1197.75 21.6716 1198.42 21 1199.25 21C1200.08 21 1200.75 21.6716 1200.75 22.5C1200.75 23.3284 1200.08 24 1199.25 24ZM1209.5 33C1209.78 33 1210 32.7761 1210 32.5V27.9C1210.03 26.3108 1208.86 24.9545 1207.28 24.76C1206.18 24.6593 1205.11 25.1744 1204.5 26.1V25.5C1204.5 25.2239 1204.28 25 1204 25H1202.5C1202.22 25 1202 25.2239 1202 25.5V32.5C1202 32.7761 1202.22 33 1202.5 33H1204C1204.28 33 1204.5 32.7761 1204.5 32.5V28.75C1204.5 27.9216 1205.17 27.25 1206 27.25C1206.83 27.25 1207.5 27.9216 1207.5 28.75V32.5C1207.5 32.7761 1207.72 33 1208 33H1209.5Z" fill="black"/>
</g>
<defs>
<filter id="filter0_i_1_786" x="0" y="0" width="1280" height="54" filterUnits="userSpaceOnUse" color-interpolation-filters="sRGB">
<feFlood flood-opacity="0" result="BackgroundImageFix"/>
<feBlend mode="normal" in="SourceGraphic" in2="BackgroundImageFix" result="shape"/>
<feColorMatrix in="SourceAlpha" type="matrix" values="0 0 0 0 0 0 0 0 0 0 0 0 0 0 0 0 0 0 127 0" result="hardAlpha"/>
<feOffset dy="-1"/>
<feComposite in2="hardAlpha" operator="arithmetic" k2="-1" k3="1"/>
<feColorMatrix type="matrix" values="0 0 0 0 0 0 0 0 0 0 0 0 0 0 0 0 0 0 1 0"/>
<feBlend mode="normal" in2="shape" result="effect1_innerShadow_1_786"/>
</filter>
</defs>
</svg>
